<?xml version="1.0" encoding="UTF-8"?>
<svg width="24px" height="24px" viewBox="0 0 24 24" version="1.1" xmlns="http://www.w3.org/2000/svg" xmlns:xlink="http://www.w3.org/1999/xlink">
    <!-- Generator: Sketch 58 (84663) - https://sketch.com -->
    <title>ic_assets_activited</title>
    <desc>Created with Sketch.</desc>
    <g id="Page-1" stroke="none" stroke-width="1" fill="none" fill-rule="evenodd">
        <g id="02A_Menu" transform="translate(-16.000000, -186.000000)">
            <g id="01" transform="translate(0.000000, 170.000000)">
                <g id="ic_assets_activited" transform="translate(16.000000, 16.000000)">
                    <path d="M9.5,2.5 C14.7467051,2.5 19,6.75329488 19,12 C19,17.2467051 14.7467051,21.5 9.5,21.5 C4.25329488,21.5 0,17.2467051 0,12 C0,6.75329488 4.25329488,2.5 9.5,2.5 Z M15.0782043,2.517274 C20.0557133,2.81619501 24,6.94747874 24,12 C24,17.0525213 20.0557133,21.183805 15.078304,21.4826869 C16.0589629,20.9045501 16.9421768,20.1785615 17.69721,19.3353967 C20.5240453,18.1018415 22.5,15.2816752 22.5,12 C22.5,8.71832479 20.5240453,5.89815853 17.6969901,4.66435557 C16.9420175,3.8213075 16.0588744,3.09539778 15.0782043,2.517274 Z M9.5,4 C5.081722,4 1.5,7.581722 1.5,12 C1.5,16.418278 5.081722,20 9.5,20 C13.918278,20 17.5,16.418278 17.5,12 C17.5,7.581722 13.918278,4 9.5,4 Z" id="Shape" fill="#9E9E9E"></path>
                    <rect x="0" y="0" width="24" height="24"></rect>
                </g>
            </g>
        </g>
    </g>
</svg>
