<?xml version="1.0" encoding="UTF-8"?>
<svg width="16px" height="16px" viewBox="0 0 16 16" version="1.1" xmlns="http://www.w3.org/2000/svg" xmlns:xlink="http://www.w3.org/1999/xlink">
    <!-- Generator: Sketch 58 (84663) - https://sketch.com -->
    <title>ic_address_activited</title>
    <desc>Created with Sketch.</desc>
    <g id="Page-1" stroke="none" stroke-width="1" fill="none" fill-rule="evenodd">
        <g id="05A_Address" transform="translate(-59.000000, -172.000000)">
            <g id="Tabs" transform="translate(16.000000, 158.000000)">
                <g id="Button" transform="translate(4.000000, 4.000000)">
                    <g id="ic_address_activited" transform="translate(39.000000, 10.000000)">
                        <path d="M13,0.5 C14.1045695,0.5 15,1.3954305 15,2.5 L15,13.5 C15,14.6045695 14.1045695,15.5 13,15.5 L4,15.5 C2.8954305,15.5 2,14.6045695 2,13.5 L1.999,12.5 L1.5,12.5 C1.22385763,12.5 1,12.2761424 1,12 C1,11.7238576 1.22385763,11.5 1.5,11.5 L1.999,11.5 L1.999,8.5 L1.5,8.5 C1.22385763,8.5 1,8.27614237 1,8 C1,7.72385763 1.22385763,7.5 1.5,7.5 L1.999,7.5 L1.999,4.5 L1.5,4.5 C1.22385763,4.5 1,4.27614237 1,4 C1,3.72385763 1.22385763,3.5 1.5,3.5 L1.999,3.5 L2,2.5 C2,1.3954305 2.8954305,0.5 4,0.5 L13,0.5 Z M13,1.5 L4,1.5 C3.48716416,1.5 3.06449284,1.88604019 3.00672773,2.38337887 L3,2.5 L3,3.5 L3.5,3.5 C3.77614237,3.5 4,3.72385763 4,4 C4,4.27614237 3.77614237,4.5 3.5,4.5 L3,4.5 L3,7.5 L3.5,7.5 C3.77614237,7.5 4,7.72385763 4,8 C4,8.27614237 3.77614237,8.5 3.5,8.5 L3,8.5 L3,11.5 L3.5,11.5 C3.77614237,11.5 4,11.7238576 4,12 C4,12.2761424 3.77614237,12.5 3.5,12.5 L3,12.5 L3,13.5 C3,14.0128358 3.38604019,14.4355072 3.88337887,14.4932723 L4,14.5 L13,14.5 C13.5128358,14.5 13.9355072,14.1139598 13.9932723,13.6166211 L14,13.5 L14,2.5 C14,1.94771525 13.5522847,1.5 13,1.5 Z M8.5,3.5 C10.43025,3.5 12,5.07364744 12,7.00884364 C12,9.50673801 9.04775,11.9924941 8.92175,12.0974039 C8.800125,12.1988456 8.649625,12.25 8.5,12.25 C8.350375,12.25 8.199875,12.1988456 8.07825,12.0974039 C7.95225,11.9924941 5,9.50673801 5,7.00884364 C5,5.07364744 6.56975,3.5 8.5,3.5 Z M8.5,4.5 C7.12257368,4.5 6,5.62539488 6,7.00884364 C6,7.83157216 6.46761835,8.81455486 7.27420044,9.82762307 C7.70450263,10.3680832 8.14752929,10.8214327 8.5,11.1394287 C8.85247071,10.8214327 9.29549737,10.3680832 9.72579956,9.82762307 C10.5323816,8.81455486 11,7.83157216 11,7.00884364 C11,5.62539488 9.87742632,4.5 8.5,4.5 Z M8.5,6 C9.05228475,6 9.5,6.44771525 9.5,7 C9.5,7.55228475 9.05228475,8 8.5,8 C7.94771525,8 7.5,7.55228475 7.5,7 C7.5,6.44771525 7.94771525,6 8.5,6 Z" id="Shape" fill="#068EF1"></path>
                        <rect x="0" y="0" width="16" height="16"></rect>
                    </g>
                </g>
            </g>
        </g>
    </g>
</svg>
