<?xml version="1.0" standalone="no"?><!DOCTYPE svg PUBLIC "-//W3C//DTD SVG 1.1//EN" "http://www.w3.org/Graphics/SVG/1.1/DTD/svg11.dtd"><svg t="1573200481995" class="icon" viewBox="0 0 1024 1024" version="1.1" xmlns="http://www.w3.org/2000/svg" p-id="2044" xmlns:xlink="http://www.w3.org/1999/xlink" width="200" height="200"><defs><style type="text/css"></style></defs><path d="M931.3 484.2h-382c-5.5 0-10-4.5-10-10v-382c0-15.5-12.5-28-28-28s-28 12.5-28 28v382c0 5.5-4.5 10-10 10h-382c-15.5 0-28 12.5-28 28s12.5 28 28 28h382c5.5 0 10 4.5 10 10v382c0 15.5 12.5 28 28 28s28-12.5 28-28v-382c0-5.5 4.5-10 10-10h382c15.5 0 28-12.5 28-28 0-15.4-12.5-28-28-28z" fill="#8a8a8a" p-id="2045"></path></svg>