<?xml version="1.0" encoding="UTF-8"?>
<svg width="11px" height="11px" viewBox="0 0 11 11" version="1.1" xmlns="http://www.w3.org/2000/svg" xmlns:xlink="http://www.w3.org/1999/xlink">
    <!-- Generator: Sketch 58 (84663) - https://sketch.com -->
    <title>ic_copy_gray</title>
    <desc>Created with Sketch.</desc>
    <g id="Page-1" stroke="none" stroke-width="1" fill="none" fill-rule="evenodd">
        <g id="13A_Receive" transform="translate(-320.000000, -242.000000)">
            <g id="Form" transform="translate(12.000000, 158.000000)">
                <g id="Input" transform="translate(16.000000, 54.000000)">
                    <g id="ic_copy_gray" transform="translate(292.000000, 30.000000)">
                        <path d="M8,3 L1,3 L1,10 L8,10 L8,3 Z M6,8 L6,9 L2,9 L2,8 L6,8 Z M7,6 L7,7 L2,7 L2,6 L7,6 Z M5,4 L5,5 L2,5 L2,4 L5,4 Z M10,7 L10,1 L4,1 L4,2 L9,2 L9,7 L10,7 Z M9,11 L0,11 L0,2 L3,2 L3,0 L11,0 L11,8 L9,8 L9,11 Z" id="Shape" fill="#9E9E9E"></path>
                        <rect x="0" y="0" width="11" height="11"></rect>
                    </g>
                </g>
            </g>
        </g>
    </g>
</svg>