<?xml version="1.0" encoding="UTF-8"?>
<svg width="24px" height="24px" viewBox="0 0 24 24" version="1.1" xmlns="http://www.w3.org/2000/svg" xmlns:xlink="http://www.w3.org/1999/xlink">
    <!-- Generator: Sketch 58 (84663) - https://sketch.com -->
    <title>ic_close_white</title>
    <desc>Created with Sketch.</desc>
    <g id="Page-1" stroke="none" stroke-width="1" fill="none" fill-rule="evenodd">
        <g id="08A_Scaning" transform="translate(-16.000000, -110.000000)">
            <g id="ic_close_white" transform="translate(16.000000, 110.000000)">
                <path d="M5.28033009,4.21966991 L12,10.939 L18.7196699,4.21966991 C19.0125631,3.9267767 19.4874369,3.9267767 19.7803301,4.21966991 C20.0732233,4.51256313 20.0732233,4.98743687 19.7803301,5.28033009 L13.061,12 L19.7803301,18.7196699 C20.0732233,19.0125631 20.0732233,19.4874369 19.7803301,19.7803301 C19.4874369,20.0732233 19.0125631,20.0732233 18.7196699,19.7803301 L12,13.061 L5.28033009,19.7803301 C4.98743687,20.0732233 4.51256313,20.0732233 4.21966991,19.7803301 C3.9267767,19.4874369 3.9267767,19.0125631 4.21966991,18.7196699 L10.939,12 L4.21966991,5.28033009 C3.9267767,4.98743687 3.9267767,4.51256313 4.21966991,4.21966991 C4.51256313,3.9267767 4.98743687,3.9267767 5.28033009,4.21966991 Z" id="Shape" fill="#FFFFFF" fill-rule="nonzero"></path>
                <rect x="0" y="0" width="24" height="24"></rect>
            </g>
        </g>
    </g>
</svg>