<?xml version="1.0" encoding="UTF-8"?>
<svg width="24px" height="24px" viewBox="0 0 24 24" version="1.1" xmlns="http://www.w3.org/2000/svg" xmlns:xlink="http://www.w3.org/1999/xlink">
    <!-- Generator: Sketch 58 (84663) - https://sketch.com -->
    <title>ic_menu</title>
    <desc>Created with Sketch.</desc>
    <g id="Page-1" stroke="none" stroke-width="1" fill="none" fill-rule="evenodd">
        <g id="01A_Home" transform="translate(-335.000000, -110.000000)">
            <g id="Top" transform="translate(0.000000, 94.000000)">
                <g id="ic_menu" transform="translate(335.000000, 16.000000)">
                    <path d="M21.25,18.5 C21.6642136,18.5 22,18.8357864 22,19.25 C22,19.6642136 21.6642136,20 21.25,20 L6.75,20 C6.33578644,20 6,19.6642136 6,19.25 C6,18.8357864 6.33578644,18.5 6.75,18.5 L21.25,18.5 Z M21.25,11.25 C21.6642136,11.25 22,11.5857864 22,12 C22,12.4142136 21.6642136,12.75 21.25,12.75 L2.75,12.75 C2.33578644,12.75 2,12.4142136 2,12 C2,11.5857864 2.33578644,11.25 2.75,11.25 L21.25,11.25 Z M21.25,4 C21.6642136,4 22,4.33578644 22,4.75 C22,5.16421356 21.6642136,5.5 21.25,5.5 L6.75,5.5 C6.33578644,5.5 6,5.16421356 6,4.75 C6,4.33578644 6.33578644,4 6.75,4 L21.25,4 Z" id="Shape" fill="#FF546A"></path>
                    <rect x="0" y="0" width="24" height="24"></rect>
                </g>
            </g>
        </g>
    </g>
</svg>
