<?xml version="1.0" encoding="UTF-8"?>
<svg width="16px" height="16px" viewBox="0 0 16 16" version="1.1" xmlns="http://www.w3.org/2000/svg" xmlns:xlink="http://www.w3.org/1999/xlink">
    <!-- Generator: Sketch 58 (84663) - https://sketch.com -->
    <title>ic_receive</title>
    <desc>Created with Sketch.</desc>
    <g id="Page-1" stroke="none" stroke-width="1" fill="none" fill-rule="evenodd">
        <g id="01A_Home" transform="translate(-233.000000, -360.000000)">
            <g id="Buttons" transform="translate(16.000000, 342.000000)">
                <g id="Button" transform="translate(177.000000, 0.000000)">
                    <g id="ic_receive" transform="translate(40.000000, 18.000000)">
                        <path d="M10.5001482,0.5 L5.50014823,0.5 C5.22414823,0.5 5.00014823,0.724 5.00014823,1 L5.00014823,8.5 L2.00014823,8.5 C1.79814823,8.5 1.61514823,8.622 1.53914823,8.809 C1.46014823,8.996 1.50314823,9.21 1.64614823,9.354 L7.64614823,15.354 C7.74514823,15.452 7.87314823,15.5 8.00014823,15.5 C8.12814823,15.5 8.25614823,15.452 8.35414823,15.354 L14.3541482,9.354 C14.4981482,9.21 14.5411482,8.996 14.4621482,8.809 C14.3851482,8.622 14.2031482,8.5 14.0001482,8.5 L11.0001482,8.5 L11.0001482,1 C11.0001482,0.724 10.7761482,0.5 10.5001482,0.5 M9.80014823,1.7 L9.80014823,8.5 L9.80014823,9.7 L11.0001482,9.7 L12.3121482,9.7 L8.00014823,14.011 L3.68914823,9.7 L5.00014823,9.7 L6.20014823,9.7 L6.20014823,8.5 L6.20014823,1.7 L9.80014823,1.7" id="Shape" fill="#00B853"></path>
                        <rect x="0" y="0" width="16" height="16"></rect>
                    </g>
                </g>
            </g>
        </g>
    </g>
</svg>