<?xml version="1.0" encoding="UTF-8"?>
<svg width="24px" height="24px" viewBox="0 0 24 24" version="1.1" xmlns="http://www.w3.org/2000/svg" xmlns:xlink="http://www.w3.org/1999/xlink">
    <!-- Generator: Sketch 58 (84663) - https://sketch.com -->
    <title>ic_setting_normal</title>
    <desc>Created with Sketch.</desc>
    <g id="Page-1" stroke="none" stroke-width="1" fill="none" fill-rule="evenodd">
        <g id="02A_Menu" transform="translate(-16.000000, -410.000000)">
            <g id="05" transform="translate(0.000000, 394.000000)">
                <g id="ic_setting_normal" transform="translate(16.000000, 16.000000)">
                    <path d="M13.8469973,2 C14.4312899,2 14.9402507,2.42752712 15.0521984,3.02883467 L15.3383596,5.06498175 C15.6802655,5.23151908 16.0066313,5.42240758 16.3192204,5.63827214 L18.2482976,4.86239597 C18.7991957,4.6558092 19.4181098,4.86887798 19.7290466,5.38729145 L21.5729742,8.57484247 C21.8823821,9.09052236 21.7593953,9.74645204 21.2868014,10.1456491 L19.6589289,11.4215492 L19.6780488,11.71531 L19.6844973,12 C19.6844973,12.1847057 19.6760338,12.372999 19.6597786,12.5660137 L21.3085969,13.8588889 C21.7593953,14.2403337 21.8823821,14.8962634 21.5790466,15.4016371 L19.7229742,18.6098004 C19.4181098,19.1179077 18.7991957,19.3309765 18.2317188,19.1179474 L16.3182533,18.3481625 C16.0095418,18.5598922 15.6818012,18.7505987 15.338664,18.9190948 L15.048085,20.9839104 C14.9457193,21.5639828 14.4387226,22 13.8469973,22 L10.1469973,22 C9.56270483,22 9.05374397,21.5724729 8.94179626,20.9711653 L8.65563505,18.9350183 C8.31372919,18.7684809 7.98736337,18.5775924 7.67477425,18.3617279 L5.74569707,19.137604 C5.19479899,19.3441908 4.57588492,19.131122 4.26494808,18.6127085 L2.42102051,15.4251575 C2.11161257,14.9094776 2.23459939,14.253548 2.70719324,13.8543509 L4.33506575,12.5784508 C4.31817069,12.3785959 4.30949735,12.1877604 4.30949735,12 C4.30949735,11.8152943 4.31796092,11.627001 4.33421614,11.4339863 L2.68539781,10.1411111 C2.23459939,9.75966633 2.11161257,9.10373665 2.41494808,8.59836288 L4.27102051,5.39019961 C4.57588492,4.88209226 5.19479899,4.66902348 5.76227587,4.88205256 L7.67574141,5.65183755 C7.98445285,5.44010785 8.31219351,5.2494013 8.65533068,5.08090524 L8.94590968,3.01608957 C9.04827539,2.43601717 9.5552721,2 10.1469973,2 L13.8469973,2 Z M13.6043914,3.5 L10.3921769,3.5 L10.083627,5.69545104 C10.0471148,5.9552496 9.87750469,6.17708479 9.63636539,6.2804302 C9.12653604,6.49892849 8.65617496,6.77280963 8.24209566,7.09487131 C8.03136495,7.25877297 7.74939431,7.29830129 7.50171882,7.19866173 L5.43802142,6.36823311 L3.83580495,9.13761428 L5.58823002,10.5111366 C5.79793035,10.6754964 5.90469047,10.9387703 5.8686914,11.2027635 C5.82987198,11.4874392 5.80949735,11.7523095 5.80949735,12 C5.80949735,12.2465989 5.82957197,12.5104368 5.86926908,12.8147813 C5.9035281,13.0774338 5.79670328,13.3386797 5.58823002,13.5020777 L3.83562906,14.8751313 L5.43784739,17.6448457 L7.50171882,16.8145526 C7.74939431,16.714913 8.03136495,16.7544413 8.24209566,16.918343 C8.67082262,17.2517973 9.12951471,17.520585 9.63052948,17.7303121 C9.87461754,17.8324885 10.0468003,18.0557274 10.083627,18.3177632 L10.3896033,20.5 L13.6018178,20.5 L13.9103677,18.304549 C13.9468799,18.0447504 14.11649,17.8229152 14.3576293,17.7195698 C14.8674586,17.5010715 15.3378197,17.2271904 15.751899,16.9051287 C15.9626297,16.741227 16.2446004,16.7016987 16.4922759,16.8013383 L18.5559733,17.6317669 L20.1581897,14.8623857 L18.4057647,13.4888634 C18.1960643,13.3245036 18.0893042,13.0612297 18.1253033,12.7972365 C18.1641227,12.5125608 18.1844973,12.2476905 18.1844973,12 C18.1844973,11.7534011 18.1644227,11.4895632 18.1247256,11.1852187 C18.0904666,10.9225662 18.1972914,10.6613203 18.4057647,10.4979223 L20.1583656,9.1248687 L18.5561473,6.35515434 L16.4922759,7.18544744 C16.2446004,7.28508701 15.9626297,7.24555869 15.751899,7.08165702 C15.3231721,6.74820272 14.86448,6.479415 14.3634652,6.26968788 C14.1193771,6.16751149 13.9471944,5.94427262 13.9103677,5.68223675 L13.6043914,3.5 Z M12,9 C13.65,9 15,10.35 15,12 C15,13.65 13.65,15 12,15 C10.35,15 9,13.65 9,12 C9,10.35 10.35,9 12,9 Z M12,10.5 C11.1784271,10.5 10.5,11.1784271 10.5,12 C10.5,12.8215729 11.1784271,13.5 12,13.5 C12.8215729,13.5 13.5,12.8215729 13.5,12 C13.5,11.1784271 12.8215729,10.5 12,10.5 Z" id="Shape" fill="#FFFFFF" fill-rule="nonzero"></path>
                    <rect x="0" y="0" width="24" height="24"></rect>
                </g>
            </g>
        </g>
    </g>
</svg>