<?xml version="1.0" encoding="UTF-8"?>
<svg width="24px" height="24px" viewBox="0 0 24 24" version="1.1" xmlns="http://www.w3.org/2000/svg" xmlns:xlink="http://www.w3.org/1999/xlink">
    <!-- Generator: Sketch 58 (84663) - https://sketch.com -->
    <title>ic_torch_normal</title>
    <desc>Created with Sketch.</desc>
    <g id="Page-1" stroke="none" stroke-width="1" fill="none" fill-rule="evenodd">
        <g id="08A_Scaning" transform="translate(-176.000000, -650.000000)">
            <g id="Torch" transform="translate(164.000000, 638.000000)">
                <g id="ic_torch_normal" transform="translate(12.000000, 12.000000)">
                    <path d="M18.5,7 C18.7761424,7 19,7.22385763 19,7.5 L19,7.5 L19,12.735 C19,13.189 18.831,13.617 18.522,13.94 L18.522,13.94 L15.947,16.645 C15.854,16.743 15.8,16.881 15.8,17.023 L15.8,17.023 L15.8,23.499 C15.8,23.7751424 15.5761424,23.999 15.3,23.999 L15.3,23.999 L8.7,23.999 C8.42385763,23.999 8.2,23.7751424 8.2,23.499 L8.2,23.499 L8.2,17.023 C8.2,16.881 8.146,16.743 8.053,16.644 L8.053,16.644 L5.478,13.941 C5.17,13.618 5,13.189 5,12.735 L5,12.735 L5,7.5 C5,7.22385763 5.22385763,7 5.5,7 L5.5,7 Z M17.5,8.5 L6.5,8.5 L6.5,12.735 C6.5,12.8053981 6.52291359,12.8632125 6.56406356,12.9063668 L6.56406356,12.9063668 L9.14627211,15.6169868 C9.50319234,15.9969342 9.7,16.5031509 9.7,17.023 L9.7,17.023 L9.7,22.499 L14.3,22.499 L14.3,17.023 C14.3,16.5013647 14.498168,15.9926348 14.8605543,15.610768 L14.8605543,15.610768 L17.4381101,12.9030898 C17.4779126,12.861484 17.5,12.8057363 17.5,12.735 L17.5,12.735 L17.5,8.5 Z M20.6890175,1.40186532 C20.9893617,1.61184049 21.0831136,2.00726554 20.924144,2.32564404 L20.8688253,2.41858369 L18.6123632,5.21300756 C18.3806595,5.54265529 17.9252925,5.62305717 17.5956448,5.39208449 C17.2953006,5.18144484 17.2015487,4.78656346 17.3610674,4.4682893 L17.4165679,4.37536611 L19.6722991,1.58094225 C19.9032718,1.2505636 20.3586388,1.17089264 20.6890175,1.40186532 Z M4.2597766,1.49706723 L4.32807053,1.58092652 L6.58453968,4.37536034 C6.81551364,4.70574083 6.73511131,5.16037946 6.40546176,5.39208436 C6.10445138,5.60206069 5.70135239,5.55470124 5.4570152,5.2966845 L5.38873774,5.21300644 L3.1322686,2.41857261 C2.9005637,2.08819213 2.98096603,1.63282257 3.31134652,1.4018486 C3.61169241,1.19120778 4.01533506,1.23850682 4.2597766,1.49706723 Z M12,-0.00022 C12.3798799,-0.00022 12.6935216,0.28176511 12.7431572,0.64796725 L12.75,0.74978 L12.75,3.99978 C12.75,4.41344366 12.4144144,4.74902925 12,4.74902925 C11.6201201,4.74902925 11.3064784,4.46704414 11.2568428,4.10142027 L11.25,3.99978 L11.25,0.74978 C11.25,0.335365586 11.5855856,-0.00022 12,-0.00022 Z" id="Shape" fill="#FFFFFF" fill-rule="nonzero" opacity="0.5"></path>
                    <polygon points="0 0 24 0 24 24 0 24"></polygon>
                </g>
            </g>
        </g>
    </g>
</svg>