<?xml version="1.0" encoding="UTF-8"?>
<svg width="24px" height="24px" viewBox="0 0 24 24" version="1.1" xmlns="http://www.w3.org/2000/svg" xmlns:xlink="http://www.w3.org/1999/xlink">
    <!-- Generator: Sketch 58 (84663) - https://sketch.com -->
    <title>ic_vsys_normal</title>
    <desc>Created with Sketch.</desc>
    <g id="Page-1" stroke="none" stroke-width="1" fill="none" fill-rule="evenodd">
        <g id="02A_Menu" transform="translate(-16.000000, -354.000000)">
            <g id="04" transform="translate(0.000000, 338.000000)">
                <g id="ic_vsys_normal" transform="translate(16.000000, 16.000000)">
                    <path d="M7.92390965,4.25 C8.31565795,4.25 8.67966708,4.45192283 8.88720484,4.78398244 L15.4066583,15.2120182 C15.6369361,15.5804618 15.6369361,16.0479698 15.4065346,16.4166113 L12.7992866,20.5853108 C12.6268523,20.8606299 12.3248602,21.0278229 12,21.0278229 C11.6751398,21.0278229 11.3731477,20.8606299 11.2003328,20.5847024 L1.89335783,5.69296319 C1.71191607,5.4026606 1.70203482,5.03683187 1.86754097,4.73715801 C2.03304712,4.43748415 2.34794811,4.25102862 2.69253275,4.25 L7.92390965,4.25 Z M7.72212592,5.74999728 L3.69785486,5.74999728 L12.000173,19.0342238 L14.0141006,15.8141774 L7.72212592,5.74999728 Z M21.3074673,4.25 L21.436566,4.25893884 C21.7284429,4.29941155 21.9876412,4.47494344 22.1324591,4.73715813 C22.2979651,5.03683191 22.288084,5.40266064 22.1066632,5.69292958 L18.5926166,11.3159828 C18.4201823,11.591302 18.1181901,11.7584951 17.7933299,11.7584951 C17.4684697,11.7584951 17.1664775,11.591302 16.9936512,11.3153562 L13.4800177,5.69296329 C13.2985758,5.40266064 13.2886947,5.03683191 13.4542007,4.73715813 C13.6197068,4.4374842 13.9346079,4.25102862 14.2791925,4.25 L21.3074673,4.25 Z M20.3021779,5.74999712 L15.2844804,5.74999712 L17.7933297,9.76457025 L20.3021779,5.74999712 Z" id="Shape" fill="#FFA100" fill-rule="nonzero"></path>
                    <rect x="0" y="0" width="24" height="24"></rect>
                </g>
            </g>
        </g>
    </g>
</svg>
