<?xml version="1.0" encoding="UTF-8"?>
<svg width="351px" height="208px" viewBox="0 0 351 208" version="1.1" xmlns="http://www.w3.org/2000/svg" xmlns:xlink="http://www.w3.org/1999/xlink">
    <!-- Generator: Sketch 58 (84663) - https://sketch.com -->
    <title>img_infocard_green</title>
    <desc>Created with Sketch.</desc>
    <defs>
        <linearGradient x1="0.666678687%" y1="32.6758158%" x2="100%" y2="67.558299%" id="linearGradient-1">
            <stop stop-color="#068EF1" offset="0%"></stop>
            <stop stop-color="#5e58f9" offset="100%"></stop>
        </linearGradient>
        <linearGradient x1="50%" y1="0%" x2="50%" y2="133.285946%" id="linearGradient-2">
            <stop stop-color="#FFFFFF" stop-opacity="0" offset="0%"></stop>
            <stop stop-color="#FFFFFF" offset="100%"></stop>
        </linearGradient>
        <linearGradient x1="50%" y1="0%" x2="50%" y2="157.634065%" id="linearGradient-3">
            <stop stop-color="#FFFFFF" stop-opacity="0" offset="0%"></stop>
            <stop stop-color="#FFFFFF" offset="100%"></stop>
        </linearGradient>
        <linearGradient x1="50%" y1="0%" x2="50%" y2="100%" id="linearGradient-4">
            <stop stop-color="#FFFFFF" stop-opacity="0" offset="0%"></stop>
            <stop stop-color="#FFFFFF" offset="100%"></stop>
        </linearGradient>
        <rect id="path-5" x="0" y="0" width="351" height="208" rx=""></rect>
        <filter x="-5.4%" y="-8.2%" width="110.8%" height="118.3%" filterUnits="objectBoundingBox" id="filter-6">
            <feOffset dx="0" dy="2" in="SourceAlpha" result="shadowOffsetOuter1"></feOffset>
            <feGaussianBlur stdDeviation="6" in="shadowOffsetOuter1" result="shadowBlurOuter1"></feGaussianBlur>
            <feComposite in="shadowBlurOuter1" in2="SourceAlpha" operator="out" result="shadowBlurOuter1"></feComposite>
            <feColorMatrix values="0 0 0 0 0   0 0 0 0 0.721568627   0 0 0 0 0.68627451  0 0 0 0.2 0" type="matrix" in="shadowBlurOuter1"></feColorMatrix>
        </filter>
    </defs>
    <g id="Page-1" stroke="none" stroke-width="1" fill="none" fill-rule="evenodd">
        <g id="04A_Wallet-Info" transform="translate(-12.000000, -158.000000)">
            <g id="Content" transform="translate(12.000000, 158.000000)">
                <g id="img_infocard_green">
                    <rect id="Bg" fill="url(#linearGradient-1)" x="0" y="0" width="351" height="208" rx=""></rect>
                    <g id="Pattern" transform="translate(175.500000, 70.000000) scale(-1, 1) translate(-175.500000, -70.000000) " fill-rule="nonzero">
                        <path d="M0,116.389024 L18.6928073,116.389024 C21.2925159,116.389024 23.4,118.495825 23.4,121.099633 L23.4,134.956218 C23.4,137.557819 25.5075155,139.666826 28.1071927,139.666826 L42.0928073,139.666826 C44.6925159,139.666826 46.8,137.560748 46.8,134.957419 L46.8,97.8206297 C46.8,95.2196883 48.9075155,93.1112148 51.5071927,93.1112148 L65.4928073,93.1112148 C68.0925159,93.1112148 70.2,95.2180236 70.2,97.8218311 L70.2,111.678408 C70.2,114.280009 72.3075155,116.389024 74.9071927,116.389024 L88.8928073,116.389024 C91.4925159,116.389024 93.6,118.495825 93.6,121.099633 L93.6,134.956218 C93.6,137.557819 95.7075155,139.666826 98.3071927,139.666826 L112.292807,139.666826 C114.892516,139.666826 117,137.560017 117,134.956218 L117,121.099633 C117,118.498032 119.107516,116.389024 121.707193,116.389024 L135.692807,116.389024 C138.292516,116.389024 140.4,114.282216 140.4,111.678408 L140.4,97.8218311 C140.4,95.2202301 142.507516,93.1112148 145.107193,93.1112148 L159.092807,93.1112148 C161.692516,93.1112148 163.8,95.2180236 163.8,97.8218311 L163.8,111.678408 C163.8,114.280009 165.907516,116.389024 168.507193,116.389024 L182.492807,116.389024 C185.092516,116.389024 187.2,114.282216 187.2,111.678408 L187.2,97.8218311 C187.2,95.2202301 189.307516,93.1112148 191.907193,93.1112148 L205.892807,93.1112148 C208.492516,93.1112148 210.6,91.0044139 210.6,88.4006064 L210.6,74.5440215 C210.6,71.9424284 212.707516,69.8334131 215.307193,69.8334131 L229.292807,69.8334131 C231.892516,69.8334131 234,71.9394916 234,74.5428201 L234,111.67961 C234,114.280551 236.107516,116.389024 238.707193,116.389024 L252.692807,116.389024 C255.292516,116.389024 257.4,114.282216 257.4,111.678408 L257.4,97.8218311 C257.4,95.2202301 259.507516,93.1112148 262.107193,93.1112148 L276.092807,93.1112148 C278.692516,93.1112148 280.8,95.2180236 280.8,97.8218311 L280.8,111.678408 C280.8,114.280009 282.907516,116.389024 285.507193,116.389024 L299.492807,116.389024 C302.092516,116.389024 304.2,114.282938 304.2,111.67961 L304.2,74.5428201 C304.2,71.9418866 306.307516,69.8334131 308.907193,69.8334131 L322.892807,69.8334131 C325.492516,69.8334131 327.6,71.940214 327.6,74.5440215 L327.6,88.4006064 C327.6,91.0022074 329.707516,93.1112148 332.307193,93.1112148 L351,93.1112148 L351,-1.42108547e-14 L0,-1.42108547e-14 L0,116.389024 L0,116.389024 Z" id="svg_3" fill="url(#linearGradient-2)" opacity="0.25"></path>
                        <path d="M0,116.389024 L18.6928073,116.389024 C21.2925159,116.389024 23.4,114.282216 23.4,111.678408 L23.4,97.8218311 C23.4,95.2202301 25.5018147,93.1112148 28.1124616,93.1112148 L65.4875384,93.1112148 C68.0901602,93.1112148 70.2,95.2180236 70.2,97.8218311 L70.2,111.678408 C70.2,114.280009 72.3075155,116.389024 74.9071927,116.389024 L88.8928073,116.389024 C91.4925159,116.389024 93.6,114.282216 93.6,111.678408 L93.6,97.8218311 C93.6,95.2202301 95.7075155,93.1112148 98.3071927,93.1112148 L112.292807,93.1112148 C114.892516,93.1112148 117,91.0044139 117,88.4006064 L117,74.5440215 C117,71.9424284 119.101815,69.8334131 121.712462,69.8334131 L159.087538,69.8334131 C161.69016,69.8334131 163.8,67.7266043 163.8,65.1228046 L163.8,51.2662198 C163.8,48.6646188 165.907516,46.5556035 168.507193,46.5556035 L182.492807,46.5556035 C185.092516,46.5556035 187.2,48.6624123 187.2,51.2662198 L187.2,65.1228046 C187.2,67.7243978 189.307516,69.8334131 191.907193,69.8334131 L205.892807,69.8334131 C208.492516,69.8334131 210.6,67.7266043 210.6,65.1228046 L210.6,51.2662198 C210.6,48.6646188 212.707516,46.5556035 215.307193,46.5556035 L229.292807,46.5556035 C231.892516,46.5556035 234,48.6624123 234,51.2662198 L234,65.1228046 C234,67.7243978 236.107516,69.8334131 238.707193,69.8334131 L252.692807,69.8334131 C255.292516,69.8334131 257.4,67.7266043 257.4,65.1228046 L257.4,51.2662198 C257.4,48.6646188 259.507516,46.5556035 262.107193,46.5556035 L276.092807,46.5556035 C278.692516,46.5556035 280.8,44.4488026 280.8,41.844995 L280.8,27.9884102 C280.8,25.386817 282.907516,23.2778017 285.507193,23.2778017 L299.492807,23.2778017 C302.092516,23.2778017 304.2,25.3846105 304.2,27.9884102 L304.2,41.844995 C304.2,44.446596 306.307516,46.5556035 308.907193,46.5556035 L322.892807,46.5556035 C325.492516,46.5556035 327.6,44.4488026 327.6,41.844995 L327.6,27.9884102 C327.6,25.386817 329.707516,23.2778017 332.307193,23.2778017 L351,23.2778017 L351,7.10542736e-15 L0,7.10542736e-15 L0,116.389024 L0,116.389024 Z" id="svg_4" fill="url(#linearGradient-3)" opacity="0.3"></path>
                        <path d="M0,7.10542736e-15 L0,46.2246992 L18.5045808,46.2246992 C21.087745,46.2246992 23.1818168,44.1328729 23.1818168,41.5475725 L23.1818168,27.7894764 C23.1818168,25.2063746 25.279935,23.1123496 27.8590527,23.1123496 L41.6863976,23.1123496 C44.2695695,23.1123496 46.3636335,25.2041838 46.3636335,27.7894764 L46.3636335,41.5475725 C46.3636335,44.130682 48.4617517,46.2246992 51.0408772,46.2246992 L64.8682222,46.2246992 C67.4513863,46.2246992 69.5454581,48.3165334 69.5454581,50.9018338 L69.5454581,64.6599299 C69.5454581,67.2430317 71.6435763,69.3370567 74.222694,69.3370567 L88.0500389,69.3370567 C90.6332031,69.3370567 92.7272749,67.2459398 92.7272749,64.6611228 L92.7272749,27.7882835 C92.7272749,25.2058367 94.825393,23.1123496 97.4045108,23.1123496 L111.231856,23.1123496 C113.81502,23.1123496 115.909092,25.2041838 115.909092,27.7894764 L115.909092,41.5475725 C115.909092,44.130682 118.00721,46.2246992 120.586328,46.2246992 L134.413672,46.2246992 C136.996837,46.2246992 139.090908,44.1328729 139.090908,41.5475725 L139.090908,27.7894764 C139.090908,25.2063746 141.189027,23.1123496 143.768144,23.1123496 L157.595489,23.1123496 C160.178661,23.1123496 162.272733,21.0205154 162.272733,18.4352229 L162.272733,7.10542736e-15 L0,7.10542736e-15 L0,7.10542736e-15 Z M208.636366,7.10542736e-15 L208.636366,41.5487653 C208.636366,44.1312122 210.734485,46.2246992 213.313602,46.2246992 L227.140947,46.2246992 C229.724111,46.2246992 231.818183,44.1328729 231.818183,41.5475725 L231.818183,27.7894764 C231.818183,25.2063746 233.916301,23.1123496 236.495419,23.1123496 L250.322764,23.1123496 C252.905936,23.1123496 255,21.0205154 255,18.4352229 L255,7.10542736e-15 L208.636366,7.10542736e-15 L208.636366,7.10542736e-15 Z" id="svg_5" fill="url(#linearGradient-4)" opacity="0.2"></path>
                    </g>
                    <g>
                        <use fill="black" fill-opacity="1" filter="url(#filter-6)" xlink:href="#path-5"></use>
                        <use fill-opacity="0" fill="url(#linearGradient-1)" fill-rule="evenodd" xlink:href="#path-5"></use>
                    </g>
                </g>
            </g>
        </g>
    </g>
</svg>
