<?xml version="1.0" encoding="UTF-8"?>
<svg width="24px" height="24px" viewBox="0 0 24 24" version="1.1" xmlns="http://www.w3.org/2000/svg" xmlns:xlink="http://www.w3.org/1999/xlink">
    <!-- Generator: Sketch 58 (84663) - https://sketch.com -->
    <title>ic_logout_normal</title>
    <desc>Created with Sketch.</desc>
    <g id="Page-1" stroke="none" stroke-width="1" fill="none" fill-rule="evenodd">
        <g id="02A_Menu" transform="translate(-16.000000, -689.000000)">
            <g id="06" transform="translate(0.000000, 673.000000)">
                <g id="ic_logout_normal" transform="translate(16.000000, 16.000000)">
                    <path d="M6.64600543,3.55261437 C6.99567223,3.33056483 7.45913991,3.43401905 7.68118946,3.78368586 C7.90323901,4.13335266 7.79978478,4.59682034 7.45011797,4.81886988 C5.00906125,6.36901859 3.5,9.05475702 3.5,12 C3.5,16.6944204 7.30557963,20.5 12,20.5 C16.6944204,20.5 20.5,16.6944204 20.5,12 C20.5,9.0730875 19.0098049,6.40185928 16.5934216,4.84670478 C16.2451098,4.62253564 16.1444724,4.15844818 16.3686415,3.81013644 C16.5928106,3.4618247 17.0568981,3.36118723 17.4052098,3.58535638 C20.2461688,5.41376256 22,8.5575678 22,12 C22,17.5228475 17.5228475,22 12,22 C6.4771525,22 2,17.5228475 2,12 C2,8.53598469 3.77600455,5.37515626 6.64600543,3.55261437 Z M12,2 C12.4142136,2 12.75,2.33578644 12.75,2.75 L12.75,11.25 C12.75,11.6642136 12.4142136,12 12,12 C11.5857864,12 11.25,11.6642136 11.25,11.25 L11.25,2.75 C11.25,2.33578644 11.5857864,2 12,2 Z" id="Shape" fill="#9E9E9E" fill-rule="nonzero"></path>
                    <rect x="0" y="0" width="24" height="24"></rect>
                </g>
            </g>
        </g>
    </g>
</svg>