<?xml version="1.0" encoding="UTF-8"?>
<svg width="48px" height="48px" viewBox="0 0 48 48" version="1.1" xmlns="http://www.w3.org/2000/svg" xmlns:xlink="http://www.w3.org/1999/xlink">
    <!-- Generator: Sketch 58 (84663) - https://sketch.com -->
    <title>ic_note_tip</title>
    <desc>Created with Sketch.</desc>
    <g id="页面-1" stroke="none" stroke-width="1" fill="none" fill-rule="evenodd">
        <g id="24A_Reset-Tip" transform="translate(-164.000000, -310.000000)" fill="#FF8B00">
            <g id="Tip" transform="translate(32.000000, 286.000000)">
                <g id="Card">
                    <path d="M156,24 C169.254834,24 180,34.745166 180,48 C180,61.254834 169.254834,72 156,72 C142.745166,72 132,61.254834 132,48 C132,34.745166 142.745166,24 156,24 Z M156,25.5 C143.573593,25.5 133.5,35.5735931 133.5,48 C133.5,60.4264069 143.573593,70.5 156,70.5 C168.426407,70.5 178.5,60.4264069 178.5,48 C178.5,35.5735931 168.426407,25.5 156,25.5 Z M156,57.6 C156.662742,57.6 157.2,58.1372583 157.2,58.8 C157.2,59.4627417 156.662742,60 156,60 C155.337258,60 154.8,59.4627417 154.8,58.8 C154.8,58.1372583 155.337258,57.6 156,57.6 Z M156,33 C156.414214,33 156.75,33.3357864 156.75,33.75 L156.75,52.25 C156.75,52.6642136 156.414214,53 156,53 C155.585786,53 155.25,52.6642136 155.25,52.25 L155.25,33.75 C155.25,33.3357864 155.585786,33 156,33 Z" id="ic_note_tip"></path>
                </g>
            </g>
        </g>
    </g>
</svg>