<?xml version="1.0" encoding="UTF-8"?>
<svg width="24px" height="24px" viewBox="0 0 24 24" version="1.1" xmlns="http://www.w3.org/2000/svg" xmlns:xlink="http://www.w3.org/1999/xlink">
    <!-- Generator: Sketch 58 (84663) - https://sketch.com -->
    <title>ic_photo_library</title>
    <desc>Created with Sketch.</desc>
    <g id="Page-1" stroke="none" stroke-width="1" fill="none" fill-rule="evenodd">
        <g id="08A_Scaning" transform="translate(-335.000000, -110.000000)">
            <g id="ic_photo_library" transform="translate(335.000000, 110.000000)">
                <path d="M4.5835,5 L19.4165,5 C20.7857308,5 21.9099541,6.07156065 21.9944074,7.41991921 L21.9995,7.583 L21.9995,19.417 C21.9995,20.7862308 20.9279393,21.9104541 19.5795808,21.9949074 L19.4165,22 L4.5835,22 C3.21426923,22 2.0891213,20.9284393 2.00459695,19.5800808 L1.9995,19.417 L1.9995,7.583 C1.9995,6.21376923 3.07198521,5.08954586 4.42041488,5.00509263 L4.5835,5 L19.4165,5 Z M16.6665,12.227 L6.3945,20.5 L19.4165,20.5 C19.9746333,20.5 20.4343311,20.07664 20.4931436,19.5348089 L20.4995,19.417 L20.4995,16.061 L16.6665,12.227 Z M19.4165,6.5 L4.5835,6.5 C4.02536667,6.5 3.56479778,6.92336 3.50586919,7.46519111 L3.4995,7.583 L3.4995,19.417 C3.4995,19.8808333 3.79863889,20.2606389 4.21051505,20.4123791 L4.3255,20.448 L16.1365,10.636 C16.3919545,10.3805455 16.8267479,10.3573223 17.1148095,10.5663306 L17.1965,10.636 L20.4995,13.939 L20.4995,7.583 C20.4995,6.986 20.0145,6.5 19.4165,6.5 Z M8.5,8 C9.88071187,8 11,9.11928813 11,10.5 C11,11.8807119 9.88071187,13 8.5,13 C7.11928813,13 6,11.8807119 6,10.5 C6,9.11928813 7.11928813,8 8.5,8 Z M8.5,9.5 C7.94771525,9.5 7.5,9.94771525 7.5,10.5 C7.5,11.0522847 7.94771525,11.5 8.5,11.5 C9.05228475,11.5 9.5,11.0522847 9.5,10.5 C9.5,9.94771525 9.05228475,9.5 8.5,9.5 Z M19.25,2 C19.6642136,2 20,2.33578644 20,2.75 C20,3.16421356 19.6642136,3.5 19.25,3.5 L19.25,3.5 L4.75,3.5 C4.33578644,3.5 4,3.16421356 4,2.75 C4,2.33578644 4.33578644,2 4.75,2 L4.75,2 Z" id="Shape" fill="#FFFFFF"></path>
                <rect x="0" y="0" width="24" height="24"></rect>
            </g>
        </g>
    </g>
</svg>