<?xml version="1.0" encoding="UTF-8"?>
<svg width="16px" height="16px" viewBox="0 0 16 16" version="1.1" xmlns="http://www.w3.org/2000/svg" xmlns:xlink="http://www.w3.org/1999/xlink">
    <!-- Generator: Sketch 58 (84663) - https://sketch.com -->
    <title>ic_refresh</title>
    <desc>Created with Sketch.</desc>
    <g id="Page-1" stroke="none" stroke-width="1" fill="none" fill-rule="evenodd">
        <g id="01A_Home" transform="translate(-327.000000, -447.000000)">
            <g id="History" transform="translate(12.000000, 418.000000)">
                <g id="Title" transform="translate(20.000000, 24.000000)">
                    <g id="ic_refresh" transform="translate(295.000000, 5.000000)">
                        <path d="M8,0.5 C10.0620574,0.5 11.9832526,1.31919353 13.4109156,2.80656526 C13.461228,2.85887563 13.5497684,2.95355274 13.6534337,3.06594876 L13.6543034,1.17231536 C13.6543034,0.853428964 13.9123428,0.595389507 14.2312292,0.595389507 C14.5501156,0.595389507 14.8081551,0.853428964 14.8081551,1.17231536 L14.8081551,4.07083755 C14.8081551,4.64662523 14.3393915,5.11538878 13.7636038,5.11538878 L10.8650817,5.11538878 C10.5461953,5.11538878 10.2881558,4.85734933 10.2881558,4.53846293 C10.2881558,4.21957653 10.5461953,3.96153707 10.8650817,3.96153707 L12.90918,3.96045452 C12.7696235,3.80857927 12.6416278,3.67161642 12.5793287,3.60659055 C11.3702667,2.3468348 9.74429108,1.65385171 8,1.65385171 C4.5012827,1.65385171 1.65385171,4.5012827 1.65385171,8 C1.65385171,11.4987173 4.5012827,14.3461483 8,14.3461483 C11.4987173,14.3461483 14.3461483,11.4987173 14.3461483,8 C14.3461483,7.6811136 14.6041877,7.42307414 14.9230741,7.42307414 C15.2419605,7.42307414 15.5,7.6811136 15.5,8 C15.5,12.13537 12.13537,15.5 8,15.5 C3.86463,15.5 0.5,12.13537 0.5,8 C0.5,3.86463 3.86463,0.5 8,0.5 Z" id="Shape" fill="#9E9E9E" fill-rule="nonzero"></path>
                        <rect x="0" y="0" width="16" height="16"></rect>
                    </g>
                </g>
            </g>
        </g>
    </g>
</svg>