<svg xmlns="http://www.w3.org/2000/svg" width="26.66" height="24.302" viewBox="0 0 26.66 24.302">
  <g id="Layer_2" data-name="Layer 2" transform="translate(142.002 -417.004)">
    <g id="Layer_1" data-name="Layer 1" transform="translate(-142.002 417.004)">
      <path id="Path_15873" data-name="Path 15873" d="M268.441,168.93a13.6,13.6,0,0,1,2.639,1.622,13.942,13.942,0,0,1,4.41,5.686,7.784,7.784,0,0,1,.632,3.273c0,.132-.024.214-.167.273a13.617,13.617,0,0,1-5.836,1.136c-.674-.03-1.342-.153-2.013-.235a.527.527,0,0,1-.1-.034c.5-.35,1.018-.667,1.481-1.046a1.3,1.3,0,0,1,.937-.3,11.286,11.286,0,0,0,3.913-.651,1.026,1.026,0,0,0,.118-.063,6.8,6.8,0,0,0-.607-2.046,12.628,12.628,0,0,0-5.472-5.814c-.194-.109-.3-.2-.207-.441a4.438,4.438,0,0,0,.15-.658C268.358,169.406,268.394,169.186,268.441,168.93Z" transform="translate(-249.465 -157.247)" fill="#fb8809"/>
      <path id="Path_15874" data-name="Path 15874" d="M48.117,83.375c-.492.1-.99.183-1.477.306a.975.975,0,0,1-1.037-.333A10.053,10.053,0,0,1,42.7,77.5a10.2,10.2,0,0,1,4.3-10c.382-.285.806-.514,1.21-.768l.035.048c-.154.42-.32.837-.459,1.263a5.448,5.448,0,0,1-.329,1.107,5.062,5.062,0,0,1-.8.8,8.754,8.754,0,0,0,1.279,13.226c.063.045.124.093.187.138Z" transform="translate(-39.653 -62.115)" fill="#fb8809"/>
      <path id="Path_15875" data-name="Path 15875" d="M2.626,226.7c.175.622.352,1.224.508,1.831a.478.478,0,0,1-.074.326,9.205,9.205,0,0,0-1.314,3.072c-.111.553-.182.427.333.588a10.512,10.512,0,0,0,9.544-1.362c.093-.064.163-.112.266,0,.17.183.355.351.539.521s.36.322.569.507c-.165.119-.317.232-.473.339A12.1,12.1,0,0,1,5.213,234.7a13.722,13.722,0,0,1-4.791-1.048C0,233.484,0,233.483,0,233.025a8.572,8.572,0,0,1,1.245-4.293c.371-.657.83-1.265,1.252-1.894a1.194,1.194,0,0,1,.131-.138Z" transform="translate(0.002 -211.021)" fill="#fb8809"/>
      <path id="Path_15876" data-name="Path 15876" d="M158.27,52.358a8.186,8.186,0,0,1,1.2-1.806.415.415,0,0,1,.257-.1,9.923,9.923,0,0,1,5.077.82,10.2,10.2,0,0,1,6.071,7.684,18.27,18.27,0,0,1,.171,2.286,2.183,2.183,0,0,1-.028.31,13.239,13.239,0,0,0-1.032-.968,1.745,1.745,0,0,1-.7-1.23,8.343,8.343,0,0,0-3.043-5.288,8.6,8.6,0,0,0-7.7-1.775Z" transform="translate(-147.324 -46.925)" fill="#fb8809"/>
      <path id="Path_15877" data-name="Path 15877" d="M115.064,11.077c-.011-.643-.049-1.254-.026-1.862a11.249,11.249,0,0,1,1.729-5.691A11.476,11.476,0,0,1,120.295.032.235.235,0,0,1,120.5.024a11.319,11.319,0,0,1,3.592,3.6c.017.027.028.056.06.119-.225-.069-.415-.142-.612-.188-.548-.128-1.1-.241-1.648-.371a.716.716,0,0,1-.3-.161c-.387-.351-.765-.713-1.164-1.088-.172.138-.324.256-.467.382a9.486,9.486,0,0,0-3.3,7.8c.014.415.02.415-.368.539S115.509,10.922,115.064,11.077Z" transform="translate(-107.075 -0.004)" fill="#fb8809"/>
      <path id="Path_15878" data-name="Path 15878" d="M148.535,233.77c.407.515.779.978,1.138,1.452a.294.294,0,0,1-.007.241,10.421,10.421,0,0,1-13.233,5.782q-.113-.042-.224-.089a.4.4,0,0,1-.069-.05c.069-.03.13-.053.187-.077.627-.277,1.252-.553,1.881-.82a.714.714,0,0,1,.365-.069,8.791,8.791,0,0,0,9.9-6.189C148.48,233.917,148.492,233.888,148.535,233.77Z" transform="translate(-126.724 -217.603)" fill="#fb8809"/>
      <path id="Path_15879" data-name="Path 15879" d="M198.273,102.592c-.228-.19-.443-.36-.647-.541s-.373-.351-.546-.517c2.994-3.62,4.252-7.619,2.889-12.255a.622.622,0,0,1,.147.045c.544.312,1.091.619,1.624.95a.558.558,0,0,1,.212.346,13.914,13.914,0,0,1-2,9.747A13.556,13.556,0,0,1,198.273,102.592Z" transform="translate(-183.45 -83.106)" fill="#fb8809"/>
      <path id="Path_15880" data-name="Path 15880" d="M72.04,155.546c-.022-.633-.048-1.266-.06-1.9a.3.3,0,0,1,.13-.186,13.447,13.447,0,0,1,6.28-2.693,13.264,13.264,0,0,1,4.945.2c.085.019.169.046.294.08-.088.526-.175,1.044-.266,1.587a11.9,11.9,0,0,0-11.228,2.914Z" transform="translate(-67.002 -140.207)" fill="#fb8809"/>
      <path id="Path_15881" data-name="Path 15881" d="M123,187.585l1.5-.585a12.819,12.819,0,0,0,7.124,8.368.593.593,0,0,1-.127.093c-.589.214-1.176.434-1.773.627a.535.535,0,0,1-.378-.077,14.758,14.758,0,0,1-6.3-8.218A2.082,2.082,0,0,1,123,187.585Z" transform="translate(-114.493 -174.067)" fill="#fb8809"/>
    </g>
  </g>
</svg>
