<svg xmlns="http://www.w3.org/2000/svg" width="130.635" height="48.057" viewBox="0 0 130.635 48.057">
  <g id="Group_24" data-name="Group 24" transform="translate(-30 -34)">
    <g id="Layer_2" data-name="Layer 2" transform="translate(172.002 -383.004)">
      <g id="Layer_1" data-name="Layer 1" transform="translate(-142 417)">
        <path id="Path_15873" data-name="Path 15873" d="M268.871,168.93a26.889,26.889,0,0,1,5.218,3.207,27.571,27.571,0,0,1,8.72,11.245,15.4,15.4,0,0,1,1.25,6.473c-.008.261-.048.424-.33.54a26.927,26.927,0,0,1-11.542,2.247c-1.332-.059-2.655-.3-3.981-.465a1.044,1.044,0,0,1-.207-.067c1-.692,2.013-1.318,2.93-2.068a2.562,2.562,0,0,1,1.853-.6,22.316,22.316,0,0,0,7.738-1.287,2.019,2.019,0,0,0,.233-.124,13.445,13.445,0,0,0-1.2-4.047,24.971,24.971,0,0,0-10.821-11.5c-.384-.215-.584-.4-.41-.871a8.781,8.781,0,0,0,.3-1.3C268.708,169.872,268.78,169.436,268.871,168.93Z" transform="translate(-231.348 -145.823)" fill="#fb8809"/>
        <path id="Path_15874" data-name="Path 15874" d="M53.511,99.646c-.974.2-1.957.362-2.921.6a1.927,1.927,0,0,1-2.052-.659,19.879,19.879,0,0,1-5.744-11.572c-1-8.206,1.881-14.816,8.507-19.77.755-.563,1.593-1.016,2.392-1.519l.068.094c-.3.832-.633,1.655-.908,2.5A10.775,10.775,0,0,1,52.2,71.51a10.011,10.011,0,0,1-1.582,1.573,17.312,17.312,0,0,0,2.529,26.154c.124.089.246.183.369.274Z" transform="translate(-36.775 -57.6)" fill="#fb8809"/>
        <path id="Path_15875" data-name="Path 15875" d="M5.2,226.7c.346,1.231.7,2.421,1,3.62a.945.945,0,0,1-.146.644,18.2,18.2,0,0,0-2.6,6.075c-.219,1.094-.36.845.658,1.163a20.787,20.787,0,0,0,18.874-2.694c.185-.126.323-.222.527,0,.336.362.7.695,1.067,1.03s.713.636,1.126,1c-.327.235-.626.46-.935.67a23.931,23.931,0,0,1-14.459,4.318,27.134,27.134,0,0,1-9.474-2.073C0,240.116,0,240.114,0,239.209A16.952,16.952,0,0,1,2.46,230.72c.734-1.3,1.641-2.5,2.476-3.746a2.363,2.363,0,0,1,.26-.274Z" transform="translate(0 -195.691)" fill="#fb8809"/>
        <path id="Path_15876" data-name="Path 15876" d="M158.27,54.261a16.191,16.191,0,0,1,2.372-3.571.821.821,0,0,1,.507-.191,19.624,19.624,0,0,1,10.04,1.621,20.163,20.163,0,0,1,12.006,15.195,36.133,36.133,0,0,1,.338,4.52,4.315,4.315,0,0,1-.056.613,26.175,26.175,0,0,0-2.041-1.915,3.451,3.451,0,0,1-1.383-2.432,16.5,16.5,0,0,0-6.018-10.457,17.014,17.014,0,0,0-15.22-3.509Z" transform="translate(-136.625 -43.513)" fill="#fb8809"/>
        <path id="Path_15877" data-name="Path 15877" d="M115.1,21.9c-.022-1.272-.1-2.48-.051-3.682a22.246,22.246,0,0,1,3.419-11.253A22.693,22.693,0,0,1,125.44.059a.465.465,0,0,1,.41-.015,22.384,22.384,0,0,1,7.1,7.112c.033.053.056.111.119.235-.444-.137-.821-.282-1.21-.372-1.085-.253-2.176-.476-3.259-.733a1.417,1.417,0,0,1-.6-.319c-.766-.695-1.513-1.41-2.3-2.151-.341.274-.641.506-.923.755A18.759,18.759,0,0,0,118.26,20c.027.821.04.821-.728,1.067S115.976,21.595,115.1,21.9Z" transform="translate(-99.3)" fill="#fb8809"/>
        <path id="Path_15878" data-name="Path 15878" d="M160.652,233.77c.806,1.019,1.541,1.934,2.25,2.872a.581.581,0,0,1-.014.476,20.607,20.607,0,0,1-26.168,11.434q-.223-.082-.443-.176a.785.785,0,0,1-.137-.1c.137-.059.257-.1.369-.153,1.239-.547,2.476-1.094,3.72-1.622a1.412,1.412,0,0,1,.722-.137,17.385,17.385,0,0,0,19.573-12.239C160.544,234.061,160.567,234,160.652,233.77Z" transform="translate(-117.522 -201.795)" fill="#fb8809"/>
        <path id="Path_15879" data-name="Path 15879" d="M199.439,115.605c-.451-.376-.875-.711-1.279-1.07-.379-.335-.737-.695-1.08-1.022,5.921-7.158,8.409-15.066,5.713-24.234a1.23,1.23,0,0,1,.291.089c1.076.617,2.158,1.224,3.211,1.878a1.1,1.1,0,0,1,.418.684,27.516,27.516,0,0,1-3.951,19.275A26.808,26.808,0,0,1,199.439,115.605Z" transform="translate(-170.127 -77.066)" fill="#fb8809"/>
        <path id="Path_15880" data-name="Path 15880" d="M72.1,160.356c-.044-1.251-.094-2.5-.119-3.754a.584.584,0,0,1,.257-.368,26.592,26.592,0,0,1,12.419-5.326,26.232,26.232,0,0,1,9.779.4c.168.038.334.09.581.159-.174,1.039-.346,2.065-.525,3.139-8.455-1.986-15.808.064-22.2,5.763Z" transform="translate(-62.137 -130.021)" fill="#fb8809"/>
        <path id="Path_15881" data-name="Path 15881" d="M123,188.157,125.96,187c2.346,7.543,6.781,13.246,14.087,16.549a1.171,1.171,0,0,1-.252.183c-1.165.423-2.325.858-3.507,1.239a1.058,1.058,0,0,1-.747-.152,29.184,29.184,0,0,1-12.454-16.251A4.111,4.111,0,0,1,123,188.157Z" transform="translate(-106.179 -161.421)" fill="#fb8809"/>
      </g>
    </g>
    <g id="Layer_2-2" data-name="Layer 2" transform="translate(101 46.826)">
      <g id="Layer_1-2" data-name="Layer 1">
        <path id="Path_15882" data-name="Path 15882" d="M12.214,8.734h-7.4v4.2h6.836V17.16H4.815v8.475H0V4.51H12.214Z" transform="translate(0 -3.613)" fill="#fb8809"/>
        <path id="Path_15883" data-name="Path 15883" d="M68.8,50.318a2.685,2.685,0,0,0,2.843,2.714,3.605,3.605,0,0,0,3.2-1.458l3.277,1.637c-1.484,2.485-3.892,3.432-6.81,3.432a6.957,6.957,0,1,1,0-13.9c3.969,0,7.041,2.356,7.041,6.963a4.684,4.684,0,0,1-.026.615Zm5.123-2.509a2.331,2.331,0,0,0-2.485-2.127,2.263,2.263,0,0,0-2.509,2.127Z" transform="translate(-51.339 -34.237)" fill="#fb8809"/>
        <path id="Path_15884" data-name="Path 15884" d="M146.2,0h4.536V22.022H146.2Z" transform="translate(-117.113)" fill="#fb8809"/>
        <path id="Path_15885" data-name="Path 15885" d="M187.99,6.55A2.69,2.69,0,1,1,185.3,3.86,2.69,2.69,0,0,1,187.99,6.55Zm-5.018,18.564H187.5V11.983h-4.532Z" transform="translate(-146.279 -3.092)" fill="#fb8809"/>
        <path id="Path_15886" data-name="Path 15886" d="M226.837,57.8l-2.893-3.718-2.895,3.712H215.57l5.609-6.856-4.815-6.275h5.3l2.28,3.052,2.278-3.048h5.3l-4.813,6.271,5.606,6.862Z" transform="translate(-172.681 -35.775)" fill="#fb8809"/>
      </g>
    </g>
  </g>
</svg>
