<?xml version="1.0" encoding="UTF-8"?>
<svg width="24px" height="24px" viewBox="0 0 24 24" version="1.1" xmlns="http://www.w3.org/2000/svg" xmlns:xlink="http://www.w3.org/1999/xlink">
    <!-- Generator: Sketch 58 (84663) - https://sketch.com -->
    <title>ic_info_normal</title>
    <desc>Created with Sketch.</desc>
    <g id="Page-1" stroke="none" stroke-width="1" fill="none" fill-rule="evenodd">
        <g id="02A_Menu" transform="translate(-16.000000, -242.000000)">
            <g id="02" transform="translate(0.000000, 226.000000)">
                <g id="ic_info_normal" transform="translate(16.000000, 16.000000)">
                    <rect x="0" y="0" width="24" height="24"></rect>
                    <path d="M20,2 C21.1045695,2 22,2.8954305 22,4 L22,15 C22,18.8659932 18.8659932,22 15,22 L4,22 C2.8954305,22 2,21.1045695 2,20 L2,4 C2,2.8954305 2.8954305,2 4,2 L20,2 Z M20,3.5 L4,3.5 C3.72385763,3.5 3.5,3.72385763 3.5,4 L3.5,20 C3.5,20.2761424 3.72385763,20.5 4,20.5 L15,20.5 C18.0375661,20.5 20.5,18.0375661 20.5,15 L20.5,4 C20.5,3.72385763 20.2761424,3.5 20,3.5 Z M12.25,14.5 C12.6642136,14.5 13,14.8357864 13,15.25 C13,15.6642136 12.6642136,16 12.25,16 L7.75,16 C7.33578644,16 7,15.6642136 7,15.25 C7,14.8357864 7.33578644,14.5 7.75,14.5 L12.25,14.5 Z M16.25,10.75 C16.6642136,10.75 17,11.0857864 17,11.5 C17,11.9142136 16.6642136,12.25 16.25,12.25 L7.75,12.25 C7.33578644,12.25 7,11.9142136 7,11.5 C7,11.0857864 7.33578644,10.75 7.75,10.75 L16.25,10.75 Z M16.25,7 C16.6642136,7 17,7.33578644 17,7.75 C17,8.16421356 16.6642136,8.5 16.25,8.5 L7.75,8.5 C7.33578644,8.5 7,8.16421356 7,7.75 C7,7.33578644 7.33578644,7 7.75,7 L16.25,7 Z" id="Shape" fill="#00B8AF" fill-rule="nonzero"></path>
                </g>
            </g>
        </g>
    </g>
</svg>