<?xml version="1.0" encoding="UTF-8"?>
<svg width="16px" height="16px" viewBox="0 0 16 16" version="1.1" xmlns="http://www.w3.org/2000/svg" xmlns:xlink="http://www.w3.org/1999/xlink">
    <!-- Generator: Sketch 58 (84663) - https://sketch.com -->
    <title>ic_seeds_normal</title>
    <desc>Created with Sketch.</desc>
    <g id="Page-1" stroke="none" stroke-width="1" fill="none" fill-rule="evenodd">
        <g id="05A_Address" transform="translate(-235.000000, -172.000000)">
            <g id="Tabs" transform="translate(16.000000, 158.000000)">
                <g id="Button" transform="translate(172.000000, 4.000000)">
                    <g id="ic_seeds_normal" transform="translate(47.000000, 10.000000)">
                        <path d="M11.8551054,11.5311765 C9.91109975,13.3523529 7.44442597,14.4411765 5.25508632,14.4411765 C4.14663868,14.4411765 3.20796931,14.1438235 2.48885612,13.6055882 C5.98664399,12.8388235 8.06042775,11.1032353 9.13865308,8.00529412 C10.1146559,5.20205882 11.7279939,3.71264706 14.2177788,3.31647059 C14.265779,3.30941176 14.306668,3.28647059 14.3493348,3.26794118 C14.8168917,4.00117647 14.9333365,4.81205882 14.9333365,5.42705882 C14.9333365,7.44147059 13.782222,9.72323529 11.8551054,11.5311765 M4.1448609,4.46882353 C6.08886651,2.64676471 8.55642918,1.55882353 10.7448799,1.55882353 C11.8524387,1.55882353 12.7893303,1.85617647 13.5084435,2.39264706 C10.9306582,2.98029412 9.16087537,4.69823529 8.13065017,7.65852941 C7.12531394,10.55 5.22308623,12.0526471 1.76974294,12.6861765 C1.72618726,12.6932353 1.68974271,12.7161765 1.65152038,12.7329412 C1.18396347,11.9988235 1.0666298,11.1879412 1.0666298,10.5729412 C1.0666298,8.55852941 2.21774423,6.27676471 4.1448609,4.46882353 M14.5537798,1.85617647 C13.5759992,0.940294118 12.2328842,0.5 10.7448799,0.5 C8.37509532,0.5 5.63553187,1.61529412 3.41241434,3.69941176 C-0.20626276,7.09294118 -1.08715419,11.7694118 1.44707534,14.1438235 C2.42396705,15.0597059 3.76708203,15.5 5.25508632,15.5 C7.62487094,15.5 10.3644344,14.3847059 12.5875519,12.3005882 C16.2071179,8.90705882 17.0871204,4.23147059 14.5537798,1.85617647" id="Fill-1" fill="#FFA100"></path>
                        <rect x="0" y="0" width="16" height="16"></rect>
                    </g>
                </g>
            </g>
        </g>
    </g>
</svg>
