<?xml version="1.0" encoding="UTF-8"?>
<svg width="24px" height="24px" viewBox="0 0 24 24" version="1.1" xmlns="http://www.w3.org/2000/svg" xmlns:xlink="http://www.w3.org/1999/xlink">
    <!-- Generator: Sketch 58 (84663) - https://sketch.com -->
    <title>ic_wallet_normal</title>
    <desc>Created with Sketch.</desc>
    <g id="Page-1" stroke="none" stroke-width="1" fill="none" fill-rule="evenodd">
        <g id="02A_Menu" transform="translate(-16.000000, -298.000000)">
            <g id="03" transform="translate(0.000000, 282.000000)">
                <g id="ic_wallet_normal" transform="translate(16.000000, 16.000000)">
                    <path d="M4.5,3 L19.2468262,3 C19.6610397,3 19.9968262,3.33578644 19.9968262,3.75 C19.9968262,4.12969577 19.7146723,4.44349096 19.3485967,4.49315338 L19.2468262,4.5 L4.5,4.5 C3.94771525,4.5 3.5,4.94771525 3.5,5.5 C3.5,6.01283584 3.88604019,6.43550716 4.38337887,6.49327227 L4.5,6.5 L21.25,6.5 C21.6296958,6.5 21.943491,6.78215388 21.9931534,7.14822944 L22,7.25 L22,11 L22,16.5 L22,20.25 C22,20.6296958 21.7178461,20.943491 21.3517706,20.9931534 L21.25,21 L4.75,21 C3.28746816,21 2.09159572,19.8582954 2.00501879,18.4175223 L2,18.25 L2,5.75 C2,5.72012222 2.00174707,5.6906525 2.00514463,5.6616874 C2.00173229,5.60823102 2,5.55431781 2,5.5 C2,4.1745166 3.03153594,3.08996133 4.33562431,3.00531768 L4.5,3 L19.2468262,3 Z M3.5,7.79197816 L3.5,18.25 C3.5,18.8972087 3.99187466,19.4295339 4.62219476,19.4935464 L4.75,19.5 L20.5,19.5 L20.5,16.5 L16.25,16.5 C14.7312169,16.5 13.5,15.2687831 13.5,13.75 C13.5,12.2312169 14.7312169,11 16.25,11 L20.5,11 L20.5,8 L4.5,8 C4.14444764,8 3.80623117,7.92577625 3.5,7.79197816 Z M20.5,12.5 L16.25,12.5 C15.5596441,12.5 15,13.0596441 15,13.75 C15,14.3972087 15.4918747,14.9295339 16.1221948,14.9935464 L16.25,15 L20.5,15 L20.5,12.5 Z" id="Shape" fill="#00B8AF" fill-rule="nonzero"></path>
                    <rect x="0" y="0" width="24" height="24"></rect>
                </g>
            </g>
        </g>
    </g>
</svg>