<?xml version="1.0" encoding="UTF-8"?>
<svg width="72px" height="72px" viewBox="0 0 72 72" version="1.1" xmlns="http://www.w3.org/2000/svg" xmlns:xlink="http://www.w3.org/1999/xlink">
    <!-- Generator: Sketch 58 (84663) - https://sketch.com -->
    <title>ico_success</title>
    <desc>Created with Sketch.</desc>
    <g id="Page-1" stroke="none" stroke-width="1" fill="none" fill-rule="evenodd">
        <g id="12A_Send-Success" transform="translate(-152.000000, -206.000000)" fill="#00B853">
            <g id="Form" transform="translate(12.000000, 158.000000)">
                <g id="Message" transform="translate(44.000000, 48.000000)">
                    <path d="M132,0 C151.882251,0 168,16.117749 168,36 C168,55.882251 151.882251,72 132,72 C112.117749,72 96,55.882251 96,36 C96,16.117749 112.117749,0 132,0 Z M132,2 C113.222319,2 98,17.2223185 98,36 C98,54.7776815 113.222319,70 132,70 C150.777681,70 166,54.7776815 166,36 C166,17.2223185 150.777681,2 132,2 Z M146.9,25.3 C147.29,24.91 147.91,24.91 148.3,25.3 C148.69,25.69 148.69,26.31 148.3,26.7 L148.3,26.7 L129.7,45.29 C129.31,45.68 128.68,45.68 128.29,45.29 L128.29,45.29 L120.1,37.1 C119.71,36.71 119.71,36.09 120.1,35.7 C120.49,35.31 121.11,35.31 121.5,35.7 L121.5,35.7 L129,43.2 Z" id="ico_success"></path>
                </g>
            </g>
        </g>
    </g>
</svg>