<?xml version="1.0" encoding="UTF-8"?>
<svg width="25px" height="24px" viewBox="0 0 25 24" version="1.1" xmlns="http://www.w3.org/2000/svg" xmlns:xlink="http://www.w3.org/1999/xlink">
    <!-- Generator: Sketch 58 (84663) - https://sketch.com -->
    <title>logo</title>
    <desc>Created with Sketch.</desc>
    <g id="Page-1" stroke="none" stroke-width="1" fill="none" fill-rule="evenodd">
        <g id="01A_Home" transform="translate(-15.000000, -110.000000)">
            <g id="Top" transform="translate(0.000000, 94.000000)">
                <g id="Logo" transform="translate(16.000000, 16.000000)">
                    <g id="logo">
                        <path d="M4.4,0 L4.4,24 L2,24 L2,0 L4.4,0 Z M9.2,24 L6.8,24 L6.8,16.8 L9.2,16.8 L9.2,16.8 L14,16.8 C17.9764502,16.8 21.2,13.5764502 21.2,9.6 C21.2,5.70470185 18.1066811,2.53188704 14.2424944,2.40400676 L14,2.4 L11.6,2.399 L11.6,0 L14,0 C19.3019336,-2.75030624e-15 23.6,4.2980664 23.6,9.6 C23.6,14.9019336 19.3019336,19.2 14,19.2 L9.2,19.2 L9.2,24 Z" id="形状结合" fill="#FF546A"></path>
                        <path d="M6.8,14.4 L6.8,2.66453526e-15 L9.2,2.66453526e-15 L9.2,4.8 L14,4.8 C16.6509668,4.8 18.8,6.9490332 18.8,9.6 C18.8,12.2509668 16.6509668,14.4 14,14.4 L9.2,14.4 L6.8,14.4 Z M9.2,12 L14,12 C15.3254834,12 16.4,10.9254834 16.4,9.6 C16.4,8.32974508 15.413161,7.28997876 14.1643187,7.20553687 L14,7.2 L9.2,7.2 L9.2,12 Z" id="形状结合" fill="#FF546A"></path>
                        <rect x="2.84217094e-14" y="0" width="24" height="24"></rect>
                    </g>
                </g>
            </g>
        </g>
    </g>
</svg>
